<svg width="133" height="203" viewBox="0 0 133 203" fill="none" xmlns="http://www.w3.org/2000/svg">
<rect width="132.614" height="149.998" fill="white"/>
<g clip-path="url(#clip0_81_5863)">
<path d="M67.3078 96.2126C67.667 97.2767 67.7881 98.3539 67.6627 99.4618L67.3019 101.139C67.1261 101.681 66.8985 102.228 66.6192 102.786C66.6095 102.805 66.6003 102.822 66.5898 102.838L57.8456 118.001C57.6834 118.285 57.388 118.497 57.0311 118.583H57.028C56.6739 118.672 56.2904 118.626 55.9733 118.46L39.0832 109.627C39.0725 109.622 39.0582 109.614 39.0493 109.609C38.4356 109.262 37.9031 108.885 37.3992 108.49L36.0349 107.252C35.2645 106.39 34.7007 105.437 34.345 104.399C32.8416 99.9755 35.508 95.3494 40.3541 93.5995L41.0041 93.3825C41.1709 93.3333 41.3439 93.2868 41.5192 93.2429C43.8713 92.6593 46.3238 92.7858 48.5477 93.5942C49.9159 91.8954 51.9065 90.6627 54.2599 90.0795C54.4457 90.031 54.6329 89.9924 54.8179 89.9528L55.5022 89.8418C60.6773 89.1173 65.8052 91.7984 67.3078 96.2126ZM122.536 38.4716V113.573C122.536 114.608 121.552 115.448 120.341 115.448H112.656V127.34C112.656 128.374 111.671 129.217 110.46 129.217H93.2287L94.7584 133.716C95.0951 134.71 94.4262 135.753 93.2619 136.044L37.3924 149.923C36.228 150.213 35.0078 149.639 34.671 148.644L10.1656 76.5276C9.8288 75.5332 10.4985 74.4897 11.6646 74.2004L50.0856 64.6531V52.2373C50.0856 51.2014 51.068 50.3594 52.2821 50.3594H59.966V38.4703C59.966 37.432 60.9484 36.5924 62.1602 36.5924H120.341C121.554 36.5937 122.536 37.4331 122.536 38.4716ZM89.9289 132.962L66.6516 64.4484L14.9968 77.2855L38.2756 145.798L89.9289 132.962ZM108.266 54.1161H54.4763V63.5651L67.5329 60.3209C68.6972 60.0316 69.9159 60.6025 70.2527 61.5999L74.8588 75.1506L78.2822 71.9493C78.5359 71.7142 78.8908 71.5804 79.2623 71.5804H79.2672C79.64 71.5804 79.9979 71.7155 80.2503 71.9517L93.7014 84.5718C93.709 84.5816 93.7226 84.5893 93.7287 84.5982C94.2103 85.0826 94.5984 85.5747 94.9592 86.0822L95.8729 87.6073C96.3351 88.6264 96.5719 89.686 96.5719 90.7752C96.5719 95.4206 92.466 99.2602 87.1981 99.7883L86.496 99.8427C86.3162 99.8503 86.1365 99.8542 85.9505 99.8542C84.9812 99.8542 84.0417 99.7159 83.1342 99.5018L85.5489 106.602C88.2855 106.637 91.5398 105.817 91.5398 105.817V108.398H86.159L91.9566 125.46H108.268V54.1161H108.266ZM118.147 40.3491H64.3544V50.3605H110.46C111.671 50.3605 112.656 51.2025 112.656 52.2384V111.694H118.146V40.3491H118.147Z" fill="black"/>
</g>
<path d="M32.9414 187V164.6H42.0614C44.4507 164.6 46.5414 165.08 48.3334 166.04C50.1467 166.979 51.5547 168.291 52.5574 169.976C53.56 171.661 54.0614 173.603 54.0614 175.8C54.0614 177.997 53.56 179.939 52.5574 181.624C51.5547 183.309 50.1467 184.632 48.3334 185.592C46.5414 186.531 44.4507 187 42.0614 187H32.9414ZM35.3094 184.952H41.9334C43.9174 184.952 45.6347 184.568 47.0854 183.8C48.5574 183.011 49.6987 181.933 50.5094 180.568C51.32 179.181 51.7254 177.592 51.7254 175.8C51.7254 173.987 51.32 172.397 50.5094 171.032C49.6987 169.667 48.5574 168.6 47.0854 167.832C45.6347 167.043 43.9174 166.648 41.9334 166.648H35.3094V184.952ZM66.0349 187.16C64.2855 187.16 62.7495 186.797 61.4269 186.072C60.1042 185.325 59.0695 184.312 58.3229 183.032C57.5762 181.731 57.2029 180.248 57.2029 178.584C57.2029 176.92 57.5549 175.448 58.2589 174.168C58.9842 172.888 59.9655 171.885 61.2029 171.16C62.4615 170.413 63.8695 170.04 65.4269 170.04C67.0055 170.04 68.4029 170.403 69.6189 171.128C70.8562 171.832 71.8269 172.835 72.5309 174.136C73.2349 175.416 73.5869 176.899 73.5869 178.584C73.5869 178.691 73.5762 178.808 73.5549 178.936C73.5549 179.043 73.5549 179.16 73.5549 179.288H58.9309V177.592H72.3389L71.4429 178.264C71.4429 177.048 71.1762 175.971 70.6429 175.032C70.1309 174.072 69.4269 173.325 68.5309 172.792C67.6349 172.259 66.6002 171.992 65.4269 171.992C64.2749 171.992 63.2402 172.259 62.3229 172.792C61.4055 173.325 60.6909 174.072 60.1789 175.032C59.6669 175.992 59.4109 177.091 59.4109 178.328V178.68C59.4109 179.96 59.6882 181.091 60.2429 182.072C60.8189 183.032 61.6082 183.789 62.6109 184.344C63.6349 184.877 64.7975 185.144 66.0989 185.144C67.1229 185.144 68.0722 184.963 68.9469 184.6C69.8429 184.237 70.6109 183.683 71.2509 182.936L72.5309 184.408C71.7842 185.304 70.8455 185.987 69.7149 186.456C68.6055 186.925 67.3789 187.16 66.0349 187.16ZM88.2706 187V183.288L88.1746 182.68V176.472C88.1746 175.043 87.7693 173.944 86.9586 173.176C86.1693 172.408 84.9853 172.024 83.4066 172.024C82.3186 172.024 81.2839 172.205 80.3026 172.568C79.3213 172.931 78.4893 173.411 77.8066 174.008L76.7826 172.312C77.6359 171.587 78.6599 171.032 79.8546 170.648C81.0493 170.243 82.3079 170.04 83.6306 170.04C85.8066 170.04 87.4813 170.584 88.6546 171.672C89.8493 172.739 90.4466 174.371 90.4466 176.568V187H88.2706ZM82.4786 187.16C81.2199 187.16 80.1213 186.957 79.1826 186.552C78.2653 186.125 77.5613 185.549 77.0706 184.824C76.5799 184.077 76.3346 183.224 76.3346 182.264C76.3346 181.389 76.5373 180.6 76.9426 179.896C77.3693 179.171 78.0519 178.595 78.9906 178.168C79.9506 177.72 81.2306 177.496 82.8306 177.496H88.6226V179.192H82.8946C81.2733 179.192 80.1426 179.48 79.5026 180.056C78.8839 180.632 78.5746 181.347 78.5746 182.2C78.5746 183.16 78.9479 183.928 79.6946 184.504C80.4413 185.08 81.4866 185.368 82.8306 185.368C84.1106 185.368 85.2093 185.08 86.1266 184.504C87.0653 183.907 87.7479 183.053 88.1746 181.944L88.6866 183.512C88.2599 184.621 87.5133 185.507 86.4466 186.168C85.4013 186.829 84.0786 187.16 82.4786 187.16ZM96.6176 187V163.256H98.8896V187H96.6176Z" fill="black"/>
<defs>
<clipPath id="clip0_81_5863">
<rect width="132.614" height="113.406" fill="white" transform="translate(0 36.5924)"/>
</clipPath>
</defs>
</svg>
