<svg width="133" height="215" viewBox="0 0 133 215" fill="none" xmlns="http://www.w3.org/2000/svg">
<g clip-path="url(#clip0_81_5864)">
<path d="M93.8833 101.675C93.8833 101.798 93.8833 114.356 93.8833 114.356C93.8833 116.693 92.9657 118.149 90.4859 118.149C87.8696 118.149 86.9274 116.745 86.9274 114.407C86.9274 114.407 86.9274 104.166 86.9274 92.7152C86.9274 78.2403 86.9274 61.5716 86.9274 61.5716C86.9274 54.6314 75.1851 54.4264 75.1851 61.1L75.1107 95.1243C75.1107 96.334 74.1311 97.2156 72.7797 97.2156C71.4282 97.2156 70.4362 96.3338 70.4362 95.1243V53.9855C70.4362 47.5682 58.632 47.3837 58.632 53.9855C58.632 54.0573 58.632 95.1243 58.632 95.1243C58.632 96.334 57.6525 97.2156 56.3009 97.2156C54.9495 97.2156 53.9698 96.3338 53.9698 95.1243V58.3219C53.9698 51.7815 42.1656 51.7918 42.1656 58.3219C42.1656 58.3731 42.1656 95.1243 42.1656 95.1243C42.1656 96.334 41.1862 97.2156 39.8223 97.2156C38.4708 97.2156 37.4912 96.3338 37.4912 95.1243V66.9023C37.4912 64.6265 35.0734 62.812 32.4199 62.7197C29.6672 62.6275 26.865 64.5035 26.865 66.9023C26.865 66.9125 26.865 81.4182 26.865 95.2369C26.865 114.141 26.865 135.535 26.865 135.535C26.865 137.79 27.299 141.881 30.25 143.972L30.4484 144.116V147.16C30.4484 148.729 31.9859 150 33.883 150H79.0289C80.9261 150 82.4636 148.729 82.4636 147.16L82.5132 143.654C82.5626 143.572 82.6123 143.47 82.7116 143.388L82.724 143.377L101.918 128.851C104.46 126.75 105.749 124.31 105.749 121.603V101.675C105.737 95.1038 93.8833 95.1038 93.8833 101.675Z" fill="black"/>
</g>
<path d="M28.6936 191.192C27.0296 191.192 25.4296 190.925 23.8936 190.392C22.3789 189.837 21.2056 189.133 20.3736 188.28L21.3016 186.456C22.0909 187.224 23.1469 187.875 24.4696 188.408C25.8136 188.92 27.2216 189.176 28.6936 189.176C30.1016 189.176 31.2429 189.005 32.1176 188.664C33.0136 188.301 33.6643 187.821 34.0696 187.224C34.4963 186.627 34.7096 185.965 34.7096 185.24C34.7096 184.365 34.4536 183.661 33.9416 183.128C33.4509 182.595 32.8003 182.179 31.9896 181.88C31.1789 181.56 30.2829 181.283 29.3016 181.048C28.3203 180.813 27.3389 180.568 26.3576 180.312C25.3763 180.035 24.4696 179.672 23.6376 179.224C22.8269 178.776 22.1656 178.189 21.6536 177.464C21.1629 176.717 20.9176 175.747 20.9176 174.552C20.9176 173.443 21.2056 172.429 21.7816 171.512C22.3789 170.573 23.2856 169.827 24.5016 169.272C25.7176 168.696 27.2749 168.408 29.1736 168.408C30.4323 168.408 31.6803 168.589 32.9176 168.952C34.1549 169.293 35.2216 169.773 36.1176 170.392L35.3176 172.28C34.3576 171.64 33.3336 171.171 32.2456 170.872C31.1789 170.573 30.1443 170.424 29.1416 170.424C27.7976 170.424 26.6883 170.605 25.8136 170.968C24.9389 171.331 24.2883 171.821 23.8616 172.44C23.4563 173.037 23.2536 173.72 23.2536 174.488C23.2536 175.363 23.4989 176.067 23.9896 176.6C24.5016 177.133 25.1629 177.549 25.9736 177.848C26.8056 178.147 27.7123 178.413 28.6936 178.648C29.6749 178.883 30.6456 179.139 31.6056 179.416C32.5869 179.693 33.4829 180.056 34.2936 180.504C35.1256 180.931 35.7869 181.507 36.2776 182.232C36.7896 182.957 37.0456 183.907 37.0456 185.08C37.0456 186.168 36.7469 187.181 36.1496 188.12C35.5523 189.037 34.6349 189.784 33.3976 190.36C32.1816 190.915 30.6136 191.192 28.6936 191.192ZM47.0371 191.16C45.4584 191.16 44.2424 190.733 43.3891 189.88C42.5358 189.027 42.1091 187.821 42.1091 186.264V170.488H44.3811V186.136C44.3811 187.117 44.6264 187.875 45.1171 188.408C45.6291 188.941 46.3544 189.208 47.2931 189.208C48.2958 189.208 49.1278 188.92 49.7891 188.344L50.5891 189.976C50.1411 190.381 49.5971 190.68 48.9571 190.872C48.3384 191.064 47.6984 191.16 47.0371 191.16ZM39.1011 176.088V174.2H49.5011V176.088H39.1011ZM65.2531 191V187.288L65.1571 186.68V180.472C65.1571 179.043 64.7518 177.944 63.9411 177.176C63.1518 176.408 61.9678 176.024 60.3891 176.024C59.3011 176.024 58.2664 176.205 57.2851 176.568C56.3038 176.931 55.4718 177.411 54.7891 178.008L53.7651 176.312C54.6184 175.587 55.6424 175.032 56.8371 174.648C58.0318 174.243 59.2904 174.04 60.6131 174.04C62.7891 174.04 64.4638 174.584 65.6371 175.672C66.8318 176.739 67.4291 178.371 67.4291 180.568V191H65.2531ZM59.4611 191.16C58.2024 191.16 57.1038 190.957 56.1651 190.552C55.2478 190.125 54.5438 189.549 54.0531 188.824C53.5624 188.077 53.3171 187.224 53.3171 186.264C53.3171 185.389 53.5198 184.6 53.9251 183.896C54.3518 183.171 55.0344 182.595 55.9731 182.168C56.9331 181.72 58.2131 181.496 59.8131 181.496H65.6051V183.192H59.8771C58.2558 183.192 57.1251 183.48 56.4851 184.056C55.8664 184.632 55.5571 185.347 55.5571 186.2C55.5571 187.16 55.9304 187.928 56.6771 188.504C57.4238 189.08 58.4691 189.368 59.8131 189.368C61.0931 189.368 62.1918 189.08 63.1091 188.504C64.0478 187.907 64.7304 187.053 65.1571 185.944L65.6691 187.512C65.2424 188.621 64.4958 189.507 63.4291 190.168C62.3838 190.829 61.0611 191.16 59.4611 191.16ZM82.1761 174.04C83.5414 174.04 84.7361 174.307 85.7601 174.84C86.8054 175.352 87.6161 176.141 88.1921 177.208C88.7894 178.275 89.0881 179.619 89.0881 181.24V191H86.8161V181.464C86.8161 179.693 86.3681 178.36 85.4721 177.464C84.5974 176.547 83.3601 176.088 81.7601 176.088C80.5654 176.088 79.5201 176.333 78.6241 176.824C77.7494 177.293 77.0668 177.987 76.5761 178.904C76.1068 179.8 75.8721 180.888 75.8721 182.168V191H73.6001V174.2H75.7761V178.808L75.4241 177.944C75.9574 176.728 76.8108 175.779 77.9841 175.096C79.1574 174.392 80.5548 174.04 82.1761 174.04ZM101.913 191.16C100.313 191.16 98.8731 190.797 97.5931 190.072C96.3344 189.347 95.3424 188.344 94.6171 187.064C93.8918 185.763 93.5291 184.269 93.5291 182.584C93.5291 180.877 93.8918 179.384 94.6171 178.104C95.3424 176.824 96.3344 175.832 97.5931 175.128C98.8731 174.403 100.313 174.04 101.913 174.04C103.385 174.04 104.697 174.371 105.849 175.032C107.022 175.693 107.95 176.664 108.633 177.944C109.337 179.203 109.689 180.749 109.689 182.584C109.689 184.397 109.348 185.944 108.665 187.224C107.982 188.504 107.054 189.485 105.881 190.168C104.729 190.829 103.406 191.16 101.913 191.16ZM102.073 189.144C103.268 189.144 104.334 188.877 105.273 188.344C106.233 187.789 106.98 187.021 107.513 186.04C108.068 185.037 108.345 183.885 108.345 182.584C108.345 181.261 108.068 180.109 107.513 179.128C106.98 178.147 106.233 177.389 105.273 176.856C104.334 176.301 103.268 176.024 102.073 176.024C100.9 176.024 99.8438 176.301 98.9051 176.856C97.9664 177.389 97.2198 178.147 96.6651 179.128C96.1104 180.109 95.8331 181.261 95.8331 182.584C95.8331 183.885 96.1104 185.037 96.6651 186.04C97.2198 187.021 97.9664 187.789 98.9051 188.344C99.8438 188.877 100.9 189.144 102.073 189.144ZM108.409 191V185.944L108.633 182.552L108.313 179.16V167.256H110.585V191H108.409Z" fill="black"/>
<defs>
<clipPath id="clip0_81_5864">
<rect width="122.038" height="100.897" fill="white" transform="translate(5.28827 49.1031)"/>
</clipPath>
</defs>
</svg>
